<?xml version="1.0" encoding="utf-8"?>
<!-- Generator: Adobe Illustrator 16.0.0, SVG Export Plug-In . SVG Version: 6.00 Build 0)  -->
<!DOCTYPE svg PUBLIC "-//W3C//DTD SVG 1.1//EN" "http://www.w3.org/Graphics/SVG/1.1/DTD/svg11.dtd">
<svg version="1.1" id="Layer_1" xmlns="http://www.w3.org/2000/svg" xmlns:xlink="http://www.w3.org/1999/xlink" x="0px" y="0px"
	 width="576.716px" height="536px" viewBox="-2725.497 -7341.297 576.716 536"
	 enable-background="new -2725.497 -7341.297 576.716 536" xml:space="preserve">
<g>
	<path fill="#FF9800" d="M-2264.017-7235.377c-9.49-11.22-19.92-21.61-31.18-31.05c-44.48-37.31-101.82-59.77-164.41-59.77
		c-141.38,0-256,114.62-256,256c0,44.24,11.22,85.86,30.98,122.17c4.15,7.63,8.68,15.03,13.56,22.16
		c46.11,67.431,123.62,111.67,211.46,111.67c40.06,0,77.97-9.2,111.74-25.61c51.79-25.16,93.81-67.271,118.87-119.11
		c16.27-33.65,25.39-71.4,25.39-111.28C-2203.607-7133.147-2226.327-7190.787-2264.017-7235.377z M-2309.967-6920.597
		c-82.64,82.64-216.64,82.64-299.28,0c-82.65-82.65-82.65-216.65,0-299.29c82.64-82.65,216.64-82.65,299.29,0
		C-2227.317-7137.247-2227.317-7003.247-2309.967-6920.597z"/>
</g>
<g>
	<path fill="#FF9800" d="M-2183.756-7298.738c2.785,4.743,1.184,10.902-3.559,13.687l-492.365,289.144
		c-4.743,2.785-10.902,1.184-13.687-3.559l-12.153-20.696c-2.785-4.743-1.184-10.902,3.559-13.687l492.365-289.143
		c4.743-2.785,10.902-1.184,13.687,3.559L-2183.756-7298.738z"/>
</g>
<g>
	<circle fill="#FF9800" cx="-2311.038" cy="-7098.022" r="27.7"/>
</g>
<g>
	<path fill="#FF9800" d="M-2238.998-6958.974c5.5,0.034,7.385,3.724,4.188,8.2l-104.932,105.144
		c-4.469,3.205-10.932,2.309-14.361-1.991c0,0-12.576-15.771-20.006-28.981c-14.11-25.08-24.085-73.555-24.085-73.555
		c-1.108-5.387,2.484-9.768,7.984-9.734l100.821,0.609c5.5,0.033,14.499,0.088,19.999,0.122L-2238.998-6958.974z"/>
</g>
</svg>
